# xmcd CD database file
#
# Track frame offsets:
#	150
#	2487
#	14617
#	45832
#	52872
#	80450
#	88555
#	102950
#	117587
#	140162
#
# Disc length: 2024 seconds
#
# Revision: 0
# Processed by: cddbd v1.5.1PL0 Copyright (c) Steve Scherf et al.
# Submitted via: CDex 1.51
#
DISCID=7407e60a
DTITLE=田中公平 - レナス 古代機械の記憶 オリジナル・アルバム
DYEAR=1992
DGENRE=Game
TTITLE0=OPENING
TTITLE1=(語り) おれの名はリヒター
TTITLE2=ナスクオト
TTITLE3=(語り) 放浪〜The Secret of Lennus
TTITLE4=サスクオト
TTITLE5=(語り) 神聖戦士
TTITLE6=チェズニとミディア
TTITLE7=(語り) 運命の出会い
TTITLE8=ゼイゴス Final War
TTITLE9=(語り) そして神話へ・・・
EXTD=YEAR: 1992
EXTT0=
EXTT1=
EXTT2=
EXTT3=
EXTT4=
EXTT5=
EXTT6=
EXTT7=
EXTT8=
EXTT9=
PLAYORDER=
